<svg xmlns="http://www.w3.org/2000/svg" width="45" height="31" viewBox="0 0 45 31">
  <g fill="#0161C7" transform="translate(.017 .32)">
    <path d="M2.16305016,10.3354977 C1.76540512,10.3354977 1.44305012,10.6578527 1.44305012,11.0554978 L1.44305012,28.3237558 C1.44305012,28.7214008 1.76540512,29.0437558 2.16305016,29.0437558 L42.6186966,29.0437558 C43.0163416,29.0437558 43.3386966,28.7214008 43.3386966,28.3237558 L43.3386966,11.0554978 C43.3386966,10.6578527 43.0163416,10.3354977 42.6186966,10.3354977 L2.16305016,10.3354977 Z M2.16305016,8.89549766 L42.6186966,8.89549766 C43.8116317,8.89549766 44.7786967,9.86256265 44.7786967,11.0554978 L44.7786967,28.3237558 C44.7786967,29.5166909 43.8116317,30.4837559 42.6186966,30.4837559 L2.16305016,30.4837559 C0.970115036,30.4837559 0.00305004328,29.5166909 0.00305004328,28.3237558 L0.00305004328,11.0554978 C0.00305004328,9.86256265 0.970115036,8.89549766 2.16305016,8.89549766 Z"/>
    <polygon points="33.265 9.375 34.705 9.375 34.705 30.479 33.265 30.479"/>
    <polygon points="10.42 9.005 11.86 9.005 11.86 30.479 10.42 30.479"/>
    <path d="M7.57139952 18.5082612C7.57139952 18.1106162 7.89375452 17.7882612 8.29139956 17.7882612 8.6890446 17.7882612 9.0113996 18.1106162 9.0113996 18.5082612L9.0113996 21.288757C9.0113996 21.686402 8.6890446 22.008757 8.29139956 22.008757 7.89375452 22.008757 7.57139952 21.686402 7.57139952 21.288757L7.57139952 18.5082612zM36.1128802 18.5367403C36.1128802 18.1390953 36.4352352 17.8167403 36.8328802 17.8167403 37.2305253 17.8167403 37.5528803 18.1390953 37.5528803 18.5367403L37.5528803 21.3172361C37.5528803 21.7148812 37.2305253 22.0372362 36.8328802 22.0372362 36.4352352 22.0372362 36.1128802 21.7148812 36.1128802 21.3172361L36.1128802 18.5367403z"/>
    <polygon points="11.517 13.665 11.517 15.105 0 15.105 0 13.665"/>
    <polygon points="44.576 13.665 44.576 15.105 33.783 15.105 33.783 13.665"/>
    <path d="M30.3865246 12.0488836C30.7841696 12.0488836 31.1065246 12.3712386 31.1065246 12.7688836 31.1065246 13.1665286 30.7841696 13.4888836 30.3865246 13.4888836L14.3952222 13.4888836C13.9975771 13.4888836 13.6752221 13.1665286 13.6752221 12.7688836 13.6752221 12.3712386 13.9975771 12.0488836 14.3952222 12.0488836L30.3865246 12.0488836zM25.9889164 17.7882612C26.3865615 17.7882612 26.7089165 18.1106162 26.7089165 18.5082612 26.7089165 18.9059063 26.3865615 19.2282613 25.9889164 19.2282613L18.7928303 19.2282613C18.3951853 19.2282613 18.0728303 18.9059063 18.0728303 18.5082612 18.0728303 18.1106162 18.3951853 17.7882612 18.7928303 17.7882612L25.9889164 17.7882612z"/>
    <path d="M15.1152222 16.8115838L15.1152222 25.7659302 29.6665245 25.7659302 29.6665245 16.8115838 15.1152222 16.8115838zM15.1152222 15.3715837L29.6665245 15.3715837C30.4618146 15.3715837 31.1065246 16.0162937 31.1065246 16.8115838L31.1065246 25.7659302C31.1065246 26.5612203 30.4618146 27.2059303 29.6665245 27.2059303L15.1152222 27.2059303C14.3199321 27.2059303 13.6752221 26.5612203 13.6752221 25.7659302L13.6752221 16.8115838C13.6752221 16.0162937 14.3199321 15.3715837 15.1152222 15.3715837zM15.1152222 8.89549766C15.1152222 9.2931427 14.7928672 9.6154977 14.3952222 9.6154977 13.9975771 9.6154977 13.6752221 9.2931427 13.6752221 8.89549766L13.6752221 3.6994229C13.6752221 1.67238095 15.1785669-4.48530102e-13 17.0734993-4.48530102e-13 18.9684318-4.48530102e-13 20.4717765 1.67238095 20.4717765 3.6994229 20.4717765 4.09706795 20.1494215 4.41942294 19.7517765 4.41942294 19.3541314 4.41942294 19.0317764 4.09706795 19.0317764 3.6994229 19.0317764 2.43548523 18.1369101 1.44000008 17.0734993 1.44000008 16.0100885 1.44000008 15.1152222 2.43548523 15.1152222 3.6994229L15.1152222 8.89549766z"/>
  </g>
</svg>
