<?xml version="1.0" encoding="UTF-8"?>
<svg width="47px" height="25px" viewBox="0 0 47 25" version="1.1" xmlns="http://www.w3.org/2000/svg" xmlns:xlink="http://www.w3.org/1999/xlink">
    <!-- Generator: Sketch 53.2 (72643) - https://sketchapp.com -->
    <title>Logo</title>
    <desc>Created with Sketch.</desc>
    <g id="Symbols" stroke="none" stroke-width="1" fill="none" fill-rule="evenodd">
        <g id="funnel_header" transform="translate(-30.000000, -14.000000)" fill="#FFFFFF">
            <g id="Logo" transform="translate(53.569861, 26.905702) rotate(1.000000) translate(-53.569861, -26.905702) translate(30.214598, 14.405702)">
                <path d="M10.6195213,12.8594679 C10.6195213,10.5572719 9.12567888,8.9332173 7.14939282,8.9332173 C5.19681853,8.9332173 3.70252009,10.5572719 3.70252009,12.8837691 C3.70252009,15.2098078 5.19681853,16.8338623 7.12522504,16.8338623 C9.12567888,16.8338623 10.6195213,15.1864236 10.6195213,12.8594679 M0.816066288,6.21973478 L2.88583151,6.21973478 C3.07871776,6.21973478 3.24242027,6.36095692 3.272516,6.55261554 L3.4152427,7.4760616 C3.46585824,7.80160614 3.87032657,7.91990261 4.08510062,7.67092981 C5.03220403,6.5718731 6.4129595,5.90427754 7.99252916,5.90427754 C11.1019649,5.90427754 13.9697229,8.61821857 13.9697229,12.8837691 C13.9697229,17.1493196 11.1740123,19.8875618 8.06457651,19.8875618 C6.68564502,19.8875618 5.33589727,19.2914944 4.41068167,18.3451226 C4.16991585,18.0989009 3.75085566,18.2850574 3.75085566,18.630318 L3.75085566,24.2443565 C3.75085566,24.4612334 3.57575324,24.6377611 3.35961121,24.6377611 L0.816066288,24.6377611 C0.599924249,24.6377611 0.425277834,24.4612334 0.425277834,24.2443565 L0.425277834,6.6126808 C0.425277834,6.39580394 0.599924249,6.21973478 0.816066288,6.21973478" id="Fill-12"></path>
                <path d="M16.2709516,14.2410606 L16.2709516,6.6127725 C16.2709516,6.39589564 16.4460541,6.21936797 16.6617401,6.21936797 L19.205741,6.21936797 C19.4214271,6.21936797 19.5965295,6.39589564 19.5965295,6.6127725 L19.5965295,14.2410606 C19.5965295,15.9128006 20.5126252,16.833954 22.0789709,16.833954 C23.6699405,16.833954 24.6339158,15.9128006 24.6339158,14.2167593 L24.6339158,6.6127725 C24.6339158,6.39589564 24.8090182,6.21936797 25.0247042,6.21936797 L27.5687051,6.21936797 C27.7848472,6.21936797 27.9599496,6.39589564 27.9599496,6.6127725 L27.9599496,14.2167593 C27.9599496,17.5368551 25.7187299,19.887195 22.0789709,19.887195 C18.440124,19.887195 16.2709516,17.5368551 16.2709516,14.2410606" id="Fill-14"></path>
                <path d="M30.956344,0.11224409 L33.4998889,0.11224409 C33.7160309,0.11224409 33.8911333,0.28831325 33.8911333,0.505648619 L33.8911333,19.1547657 C33.8911333,19.372101 33.7160309,19.5481702 33.4998889,19.5481702 L30.956344,19.5481702 C30.7402019,19.5481702 30.5650995,19.372101 30.5650995,19.1547657 L30.5650995,0.505648619 C30.5650995,0.28831325 30.7402019,0.11224409 30.956344,0.11224409" id="Fill-16"></path>
                <path d="M45.6844631,7.24648392 L45.6844631,9.03514484 C45.6844631,9.40149708 45.3009706,9.63258785 44.9772135,9.46431342 C44.0615739,8.98975201 42.8654967,8.66695855 41.6840114,8.66695855 C40.3342637,8.66695855 39.5868865,9.17590847 39.5868865,9.9755559 C39.5868865,10.8238058 40.4541906,11.1631057 42.0693279,11.5996105 C44.1906207,12.1567043 46.5038877,12.8839066 46.5038877,15.6464501 C46.5038877,18.2155009 44.5034338,19.8872409 41.0807289,19.8872409 C39.3351767,19.8872409 37.7815988,19.4374392 36.6201774,18.6776824 C36.4838346,18.5878138 36.4054033,18.4323777 36.4054033,18.2682299 L36.4054033,16.3521023 C36.4054033,15.9586977 36.8399674,15.728524 37.1646364,15.9481519 C38.1618994,16.6226252 39.4231839,17.1003962 40.9366342,17.1003962 C42.4304767,17.1003962 43.274525,16.5433024 43.274525,15.6712098 C43.274525,14.7257551 42.2380464,14.4107564 40.4541906,13.8770467 C38.3096421,13.2713505 36.3575238,12.4474018 36.3575238,10.0484595 C36.3575238,7.64905872 38.3096421,5.90441509 41.5631725,5.90441509 C42.9895276,5.90441509 44.4573783,6.25655341 45.4514492,6.82740264 C45.5991919,6.91222763 45.6844631,7.07545841 45.6844631,7.24648392" id="Fill-18"></path>
            </g>
        </g>
    </g>
</svg>